<svg width="20" height="18" viewBox="0 0 20 18" fill="none" xmlns="http://www.w3.org/2000/svg">
<path fill-rule="evenodd" clip-rule="evenodd" d="M10.212 5.1552V7.1916C10.6384 6.54201 11.2262 6.01428 11.9179 5.66005C12.6095 5.30582 13.3813 5.13724 14.1576 5.1708C18.3036 5.1708 19.2 7.7628 19.2 11.1348V18H15.36V11.9136C15.36 10.4616 15.0672 8.5944 12.8064 8.5944C10.614 8.5944 10.2396 10.1748 10.2396 11.8056V18H6.41159V5.1552H10.212ZM3.83999 1.9272C3.83952 2.3076 3.72676 2.6794 3.51585 2.99598C3.30494 3.31256 3.00526 3.55984 2.65439 3.7068C2.30366 3.85258 1.9175 3.89071 1.54503 3.81635C1.17257 3.74198 0.830648 3.55848 0.562791 3.2892C0.29443 3.01975 0.111728 2.67697 0.0376617 2.30396C-0.0364051 1.93095 0.00147007 1.54437 0.146524 1.19283C0.291577 0.841292 0.537333 0.540488 0.852887 0.328247C1.16844 0.116006 1.5397 0.00180288 1.91999 0C2.17274 -1.77707e-06 2.42299 0.0498979 2.65641 0.146837C2.88983 0.243776 3.10181 0.385846 3.28019 0.564898C3.45857 0.74395 3.59985 0.95646 3.69591 1.19024C3.79198 1.42401 3.84094 1.67446 3.83999 1.9272Z" fill="#49B0DC"/>
<path d="M3.84 5.16992H0V17.9991H3.84V5.16992Z" fill="#49B0DC"/>
</svg>
