<svg width="71" height="71" viewBox="0 0 71 71" fill="none" xmlns="http://www.w3.org/2000/svg">
<circle cx="35.1659" cy="35.1426" r="35" transform="rotate(-0.236113 35.1659 35.1426)" fill="#423F67"/>
<path d="M33.8869 25.9361L32.4972 27.1273C30.6117 28.7435 29.1877 30.2101 28.1703 31.6852C31.5375 31.7801 34.2191 34.5081 34.2331 37.9025C34.2472 41.3665 31.4777 44.159 28.0137 44.1733C24.5498 44.1875 21.7573 41.4179 21.7429 37.954C21.721 32.6335 25.0535 28.0512 29.9125 24.1136L31.0883 23.1605L33.8869 25.9361ZM48.0655 25.8776L46.6758 27.0689C44.7978 28.6786 43.3707 30.1459 42.3332 31.6269C45.7077 31.7138 48.3976 34.4444 48.4117 37.8441C48.4258 41.308 45.6563 44.1006 42.1923 44.1149C39.2589 44.127 36.8064 42.1427 36.1154 39.4309L35.5773 39.9194L35.9696 38.6581C35.9385 38.4083 35.9226 38.1538 35.9215 37.8955C35.8996 32.5751 39.2312 27.9927 44.0901 24.0551L45.2669 23.102L48.0655 25.8776ZM27.5125 42.4605C27.5982 42.4692 27.6844 42.4769 27.7714 42.4809L27.5389 42.4643C27.5301 42.4635 27.5214 42.4614 27.5125 42.4605ZM41.7263 42.4058C41.7396 42.4071 41.753 42.4075 41.7663 42.4086C41.753 42.4075 41.7396 42.4071 41.7263 42.4058ZM41.2817 42.3422C41.2885 42.3436 41.2954 42.3448 41.3022 42.3461C41.2954 42.3448 41.2885 42.3436 41.2817 42.3422ZM40.8477 42.2356C40.8626 42.2401 40.8777 42.2439 40.8926 42.2481C40.8777 42.2439 40.8626 42.2401 40.8477 42.2356ZM40.4261 42.087C40.4465 42.0953 40.4672 42.1031 40.4878 42.1111C40.4672 42.1031 40.4466 42.0953 40.4261 42.087ZM40.2275 41.9999C40.2566 42.0134 40.2862 42.0257 40.3156 42.0386C40.2862 42.0257 40.2566 42.0135 40.2275 41.9999ZM40.0387 41.906C40.0594 41.9168 40.0804 41.9274 40.1013 41.9379C40.0804 41.9274 40.0594 41.9168 40.0387 41.906ZM39.651 41.6781C39.6788 41.6963 39.707 41.7138 39.7352 41.7314C39.707 41.7137 39.6788 41.6963 39.651 41.6781ZM39.4728 41.5548C39.505 41.5783 39.5378 41.601 39.5707 41.6237C39.5378 41.601 39.505 41.5783 39.4728 41.5548ZM39.3013 41.4236C39.3337 41.4497 39.3672 41.4742 39.4003 41.4994C39.3672 41.4742 39.3337 41.4497 39.3013 41.4236ZM39.1465 41.2924C39.1704 41.3135 39.1947 41.3341 39.219 41.3546C39.1947 41.3341 39.1704 41.3135 39.1465 41.2924ZM38.9955 41.1524C39.0119 41.1683 39.0279 41.1845 39.0445 41.2001C39.0279 41.1845 39.0119 41.1683 38.9955 41.1524ZM38.8494 41.0056C38.8594 41.0161 38.8697 41.0263 38.8798 41.0367C38.8697 41.0263 38.8594 41.0161 38.8494 41.0056ZM38.7003 40.8392C38.7135 40.8546 38.7271 40.8697 38.7405 40.8849C38.7271 40.8697 38.7135 40.8546 38.7003 40.8392ZM38.555 40.6611C38.5743 40.6861 38.5941 40.7105 38.6139 40.7351C38.5941 40.7105 38.5743 40.6861 38.555 40.6611ZM38.4323 40.4936C38.4486 40.5169 38.4656 40.5398 38.4823 40.5628C38.4656 40.5398 38.4486 40.5169 38.4323 40.4936ZM38.3153 40.3183C38.3287 40.3395 38.3419 40.3607 38.3556 40.3816C38.3419 40.3607 38.3287 40.3395 38.3153 40.3183ZM38.2091 40.143C38.2179 40.1583 38.2267 40.1736 38.2357 40.1888C38.2267 40.1736 38.2179 40.1583 38.2091 40.143ZM38.0851 39.9091C38.1011 39.9413 38.1166 39.9738 38.1334 40.0056C38.1166 39.9738 38.1011 39.9414 38.0851 39.9091ZM37.9994 39.7268C38.014 39.7598 38.0284 39.7928 38.0438 39.8253C38.0284 39.7928 38.014 39.7598 37.9994 39.7268ZM37.9086 39.5055C37.9243 39.5467 37.9402 39.5878 37.957 39.6284C37.9402 39.5878 37.9243 39.5467 37.9086 39.5055ZM37.8336 39.2949C37.8476 39.3382 37.8627 39.381 37.878 39.4236C37.8627 39.381 37.8476 39.3382 37.8336 39.2949ZM37.7781 39.1106C37.7876 39.1446 37.7976 39.1783 37.8078 39.212C37.7976 39.1783 37.7876 39.1446 37.7781 39.1106ZM37.7235 38.893C37.7312 38.927 37.7389 38.9608 37.7474 38.9945C37.7389 38.9608 37.7312 38.927 37.7235 38.893ZM37.6746 38.6471C37.6816 38.6883 37.6886 38.7293 37.6966 38.7701C37.6886 38.7293 37.6816 38.6883 37.6746 38.6471ZM37.6445 38.4353C37.6499 38.4801 37.6549 38.5247 37.6616 38.569C37.6549 38.5247 37.6499 38.4801 37.6445 38.4353ZM37.616 37.4579C37.6109 37.601 37.6084 37.7447 37.609 37.8886C37.6093 37.9498 37.6111 38.0106 37.6137 38.0712C37.6139 38.0763 37.6145 38.0817 37.6147 38.0868C37.6117 38.0212 37.6093 37.9549 37.609 37.8886C37.6084 37.7446 37.6109 37.6011 37.616 37.4579ZM23.5013 36.6655C23.485 36.8077 23.4718 36.9503 23.4611 37.0934C23.4718 36.9503 23.485 36.8077 23.5013 36.6655ZM37.6565 36.8503C37.6529 36.8887 37.6484 36.9271 37.6452 36.9656C37.6484 36.9271 37.6529 36.8887 37.6565 36.8503ZM37.714 36.3501C37.704 36.422 37.6942 36.4939 37.6856 36.566C37.6942 36.4939 37.704 36.422 37.714 36.3501ZM23.5887 36.0674C23.5801 36.1176 23.5708 36.1677 23.5629 36.2179C23.5708 36.1677 23.5801 36.1176 23.5887 36.0674ZM37.7854 35.9054C37.7732 35.9728 37.761 36.0402 37.7501 36.1077C37.7611 36.0402 37.7732 35.9728 37.7854 35.9054ZM23.6901 35.5534C23.6717 35.6371 23.6519 35.7205 23.6355 35.8046C23.6519 35.7205 23.6717 35.6371 23.6901 35.5534ZM31.0444 34.5377C31.3685 34.8297 31.6507 35.1674 31.8796 35.5421C31.6887 35.2297 31.4614 34.9425 31.2032 34.6864C31.1515 34.6352 31.0984 34.5854 31.0444 34.5367L31.0444 34.5377ZM37.8677 35.4949C37.8552 35.5516 37.8429 35.6082 37.8313 35.665C37.8429 35.6082 37.8552 35.5516 37.8677 35.4949ZM45.223 34.4793C45.5471 34.7712 45.8293 35.109 46.0582 35.4836C45.8674 35.1713 45.6399 34.8841 45.3818 34.628C45.3301 34.5768 45.277 34.527 45.223 34.4783L45.223 34.4793ZM23.7793 35.1741C23.7608 35.2464 23.7426 35.3186 23.7256 35.3911C23.7426 35.3186 23.7608 35.2464 23.7793 35.1741ZM37.9675 35.0746C37.9551 35.1224 37.9438 35.1704 37.932 35.2183C37.9438 35.1704 37.9551 35.1224 37.9675 35.0746ZM23.9064 34.7175C23.8815 34.8006 23.8562 34.8834 23.8332 34.9668C23.8562 34.8834 23.8815 34.8006 23.9064 34.7175ZM38.0984 34.6092C38.0775 34.6781 38.0584 34.7474 38.0387 34.8165C38.0584 34.7474 38.0774 34.6781 38.0984 34.6092ZM25.1627 34.3559C25.0844 34.4226 25.0084 34.4919 24.936 34.5648C24.9678 34.4533 25.0014 34.3425 25.0362 34.2324C25.0014 34.3425 24.9678 34.4533 24.936 34.5648C25.0084 34.4919 25.0844 34.4226 25.1627 34.3559ZM24.0355 34.3078C24.015 34.3682 23.9952 34.4291 23.9757 34.4897C23.9699 34.5078 23.9641 34.5263 23.9584 34.5444C23.9914 34.4401 24.0266 34.3363 24.0626 34.2325C24.0538 34.2577 24.0441 34.2825 24.0355 34.3078ZM38.2132 34.2523C38.2006 34.2895 38.1897 34.3275 38.1775 34.3647C38.1943 34.3136 38.2102 34.2622 38.2276 34.2112C38.2229 34.2249 38.2178 34.2385 38.2132 34.2523ZM39.3294 34.2574C39.3114 34.2712 39.2937 34.2856 39.2759 34.2997C39.2937 34.2856 39.3114 34.2712 39.3294 34.2574ZM30.1502 33.9095L30.1502 33.9086L30.1502 33.9095ZM44.3288 33.8511L44.3288 33.8501L44.3288 33.8511ZM25.3681 34.1919C25.3406 34.2122 25.3142 34.2338 25.2873 34.2548C25.3142 34.2338 25.3406 34.2122 25.3681 34.1919ZM25.5414 34.0711C25.4983 34.0994 25.4557 34.1286 25.4138 34.1585C25.4557 34.1286 25.4983 34.0994 25.5414 34.0711ZM39.6391 34.0413C39.6169 34.0555 39.5948 34.07 39.5728 34.0846C39.5948 34.07 39.6169 34.0555 39.6391 34.0413ZM25.1375 33.9273C25.147 33.8997 25.1577 33.8726 25.1674 33.8451C25.1577 33.8726 25.147 33.8997 25.1375 33.9273ZM25.785 33.9246C25.7129 33.9649 25.6416 34.0061 25.5726 34.0505C25.6416 34.0061 25.7129 33.9648 25.785 33.9246ZM24.2383 33.7552C24.2273 33.7832 24.2163 33.8112 24.2055 33.8393C24.1926 33.8728 24.1814 33.9075 24.1688 33.941C24.192 33.8792 24.2141 33.8169 24.2383 33.7552ZM26.0607 33.7828C26.0466 33.7894 26.0329 33.7968 26.0188 33.8035C26.0412 33.7929 26.0635 33.7823 26.0861 33.772C26.0778 33.7758 26.069 33.779 26.0607 33.7828ZM40.2432 33.7156C40.2337 33.7198 40.2244 33.7241 40.2149 33.7284C40.2279 33.7225 40.2409 33.7164 40.2539 33.7107C40.2504 33.7122 40.2467 33.714 40.2432 33.7156ZM26.3951 33.6457C26.3473 33.6631 26.2998 33.681 26.2528 33.7C26.2998 33.681 26.3473 33.6631 26.3951 33.6457ZM40.5805 33.5824C40.5407 33.5964 40.501 33.6107 40.4616 33.6258C40.501 33.6107 40.5407 33.5964 40.5805 33.5824ZM38.5533 33.3632C38.5169 33.4487 38.4822 33.5346 38.4479 33.6205C38.4822 33.5346 38.5169 33.4487 38.5533 33.3632ZM40.8039 33.5092C40.7719 33.5187 40.74 33.5287 40.7083 33.5389C40.74 33.5287 40.7719 33.5187 40.8039 33.5092ZM26.6214 33.5706C26.6005 33.5769 26.5797 33.5837 26.559 33.5903C26.5797 33.5837 26.6005 33.5769 26.6214 33.5706ZM27.9692 33.3707C27.6914 33.3718 27.4181 33.3967 27.1531 33.4434C27.1456 33.4447 27.1381 33.446 27.1307 33.4474C27.4027 33.3981 27.6835 33.3728 27.9692 33.3716C28.2856 33.3703 28.5946 33.3996 28.8924 33.4587C28.6691 33.4144 28.4397 33.3863 28.2056 33.3755C28.1274 33.372 28.0484 33.3703 27.9692 33.3707ZM42.1478 33.3122C41.8538 33.3134 41.5646 33.3408 41.2839 33.3929C41.2606 33.3973 41.2377 33.4032 41.2146 33.4079C41.5173 33.347 41.8293 33.3145 42.1478 33.3132C42.4643 33.3119 42.7731 33.3411 43.071 33.4002C42.8474 33.3559 42.6177 33.3279 42.3832 33.3171C42.3052 33.3135 42.2268 33.3119 42.1478 33.3122ZM41.0653 33.4397C41.0212 33.4501 40.9773 33.4609 40.9336 33.4725C40.9773 33.4609 41.0212 33.4501 41.0653 33.4397ZM26.9482 33.4852C26.8945 33.4972 26.8411 33.5101 26.7882 33.524C26.8411 33.5101 26.8945 33.4972 26.9482 33.4852ZM38.74 32.9444C38.6867 33.0587 38.6348 33.173 38.5852 33.2879C38.6348 33.173 38.6867 33.0587 38.74 32.9444ZM24.5227 33.087C24.4959 33.1456 24.4702 33.2044 24.4443 33.2631C24.4702 33.2044 24.4959 33.1455 24.5227 33.087ZM38.924 32.5648C38.8711 32.6699 38.8199 32.7753 38.77 32.8808C38.8199 32.7753 38.8711 32.6699 38.924 32.5648ZM24.7735 32.5674C24.7107 32.6907 24.65 32.8143 24.5914 32.9383C24.65 32.8143 24.7107 32.6907 24.7735 32.5674ZM38.9705 32.4718C38.965 32.4824 38.9594 32.4935 38.954 32.5041C39.0045 32.4051 39.0579 32.3071 39.111 32.2085C39.0637 32.2964 39.0157 32.3836 38.9705 32.4718ZM39.3058 31.8562C39.26 31.9361 39.2142 32.0157 39.1701 32.096C39.2142 32.0158 39.26 31.9361 39.3058 31.8562ZM25.1176 31.9342C25.0817 31.9969 25.0457 32.0592 25.0109 32.1221C25.0457 32.0592 25.0817 31.9969 25.1176 31.9342ZM25.3736 31.5005C25.33 31.5714 25.2878 31.6428 25.2456 31.7139C25.2878 31.6428 25.33 31.5714 25.3736 31.5005ZM39.557 31.4332C39.5134 31.5041 39.4713 31.5756 39.429 31.6467C39.4713 31.5756 39.5134 31.5041 39.557 31.4332ZM25.653 31.0599C25.597 31.145 25.5431 31.231 25.489 31.3164C25.5431 31.231 25.597 31.145 25.653 31.0599ZM40.116 30.5823C40.0251 30.7122 39.9364 30.8424 39.8501 30.973C39.9364 30.8425 40.0251 30.7122 40.116 30.5823ZM25.9277 30.6544C25.8721 30.734 25.8186 30.8145 25.7647 30.8944C25.8186 30.8145 25.8721 30.734 25.9277 30.6544ZM40.5297 30.0181C40.4866 30.0751 40.4428 30.1314 40.4005 30.1885C40.4428 30.1314 40.4866 30.0751 40.5297 30.0181ZM26.7553 29.5592C26.6756 29.6576 26.5962 29.7553 26.5192 29.8541C26.5962 29.7553 26.6756 29.6576 26.7553 29.5592ZM40.8153 29.6487C40.7921 29.678 40.7684 29.7067 40.7454 29.736C40.7684 29.7067 40.7921 29.678 40.8153 29.6487ZM27.0643 29.1869C26.9895 29.275 26.9153 29.3629 26.8427 29.4514C26.9153 29.3629 26.9895 29.275 27.0643 29.1869ZM41.271 29.0951C41.1937 29.186 41.1168 29.2763 41.0417 29.3675C41.1168 29.2763 41.1937 29.186 41.271 29.0951ZM27.4064 28.7909C27.3363 28.8699 27.2678 28.9498 27.1994 29.0291C27.2678 28.9498 27.3363 28.8699 27.4064 28.7909ZM41.5762 28.7423C41.5094 28.8177 41.4433 28.8931 41.3779 28.9687C41.4433 28.8931 41.5094 28.8177 41.5762 28.7423ZM27.7729 28.3861C27.7062 28.4579 27.6409 28.5306 27.5755 28.6027C27.6409 28.5306 27.7062 28.4579 27.7729 28.3861ZM41.9418 28.3394C41.894 28.3909 41.8469 28.4427 41.7998 28.4943C41.8469 28.4427 41.894 28.3909 41.9418 28.3394ZM43.0991 27.1676C42.7588 27.4923 42.4327 27.8198 42.1207 28.1492C42.4327 27.8198 42.7588 27.4923 43.0991 27.1676ZM28.5294 27.6056C28.3325 27.8009 28.1415 27.9979 27.9547 28.1949C28.1415 27.998 28.3325 27.8009 28.5294 27.6056ZM29.223 26.9426C29.1229 27.0355 29.0232 27.1278 28.9253 27.2212C29.0232 27.1278 29.1229 27.0355 29.223 26.9426ZM29.6141 26.5845C29.5237 26.6657 29.4343 26.7473 29.3456 26.8288C29.4343 26.7473 29.5237 26.6657 29.6141 26.5845ZM43.8083 26.5124C43.7197 26.5918 43.6316 26.671 43.5446 26.7508C43.6316 26.671 43.7197 26.5918 43.8083 26.5124ZM30.0393 26.2097C29.9713 26.2687 29.9041 26.3282 29.8369 26.3873C29.9041 26.3282 29.9713 26.2687 30.0393 26.2097ZM44.2432 26.1287C44.1665 26.1951 44.0911 26.2623 44.0155 26.3289C44.0911 26.2623 44.1665 26.1951 44.2432 26.1287ZM45.1532 25.3662C44.8964 25.5743 44.6455 25.7842 44.3999 25.9943C44.6454 25.7843 44.8965 25.5752 45.1532 25.3672L45.5121 25.7231L45.1532 25.3662ZM30.5191 25.7995C30.6687 25.6743 30.8209 25.5501 30.9746 25.4256L31.3335 25.7815L30.9746 25.4246C30.8208 25.5492 30.6689 25.6742 30.5191 25.7995ZM37.6269 37.2586C37.6233 37.325 37.6184 37.3914 37.616 37.4579C37.6184 37.3914 37.6233 37.325 37.6269 37.2586ZM23.5307 36.4437C23.5206 36.5176 23.5098 36.5914 23.5013 36.6655C23.5098 36.5914 23.5206 36.5176 23.5307 36.4437ZM24.3737 33.4245C24.327 33.5345 24.2817 33.6447 24.2383 33.7552C24.2817 33.6447 24.327 33.5345 24.3737 33.4245ZM39.8501 30.973C39.7884 31.0663 39.7289 31.1604 39.6696 31.2541C39.7289 31.1604 39.7884 31.0663 39.8501 30.973ZM43.3782 26.9048C43.2842 26.9922 43.1911 27.0798 43.0991 27.1676C43.1911 27.0798 43.2842 26.9922 43.3782 26.9048ZM28.7989 27.3438C28.7083 27.4312 28.618 27.5179 28.5294 27.6056C28.618 27.5179 28.7083 27.4312 28.7989 27.3438ZM30.5191 25.7995C30.4596 25.8493 30.4018 25.9008 30.343 25.9507C30.4018 25.9008 30.4596 25.8493 30.5191 25.7995Z" fill="white"/>
</svg>
